<?xml version="1.0" standalone="no"?>
<!DOCTYPE svg PUBLIC "-//W3C//DTD SVG 20010904//EN"
 "http://www.w3.org/TR/2001/REC-SVG-20010904/DTD/svg10.dtd">
<svg version="1.0" xmlns="http://www.w3.org/2000/svg"
 width="169.000000pt" height="68.000000pt" viewBox="0 0 169.000000 68.000000"
 preserveAspectRatio="xMidYMid meet">

<g transform="translate(0.000000,68.000000) scale(0.100000,-0.100000)"
fill="#000000" stroke="none">
<path d="M27 652 c-15 -16 -17 -49 -17 -261 0 -265 3 -283 58 -335 100 -94
284 -42 321 90 6 22 11 133 11 260 0 284 15 264 -202 264 -137 0 -157 -2 -171
-18z m323 -259 c0 -220 -2 -240 -20 -271 -59 -96 -201 -96 -260 0 -18 31 -20
51 -20 271 l0 237 150 0 150 0 0 -237z"/>
<path d="M170 611 c0 -6 5 -13 10 -16 6 -3 10 1 10 9 0 9 -4 16 -10 16 -5 0
-10 -4 -10 -9z"/>
<path d="M216 605 c4 -8 8 -15 10 -15 2 0 4 7 4 15 0 8 -4 15 -10 15 -5 0 -7
-7 -4 -15z"/>
<path d="M256 611 c-4 -7 -5 -15 -2 -18 9 -9 19 4 14 18 -4 11 -6 11 -12 0z"/>
<path d="M153 565 c-34 -15 -63 -59 -63 -99 0 -45 19 -76 95 -156 80 -84 91
-113 59 -158 -13 -19 -24 -22 -57 -20 -33 2 -44 9 -57 30 -11 21 -12 32 -4 45
16 26 37 30 30 5 -9 -29 19 -55 45 -42 31 17 22 41 -46 115 -57 61 -65 66 -65
44 0 -13 7 -35 16 -47 14 -20 14 -24 0 -44 -24 -34 -20 -74 13 -110 26 -29 35
-33 81 -33 46 0 55 4 81 33 22 24 29 42 29 73 0 54 -10 71 -96 160 -58 60 -74
83 -74 106 0 37 36 73 73 73 54 0 91 -76 48 -99 -17 -9 -19 -7 -17 22 1 29 -2
32 -29 32 -51 0 -42 -32 30 -110 64 -68 65 -69 65 -38 0 17 -7 36 -15 43 -13
11 -13 15 0 33 34 49 10 118 -51 143 -41 17 -50 17 -91 -1z"/>
<path d="M526 505 c-22 -22 -20 -42 6 -63 53 -43 60 -53 47 -68 -17 -20 -35
-17 -54 9 l-16 22 3 -25 c2 -19 10 -26 31 -28 30 -4 67 21 67 45 0 13 -7 20
-58 60 -16 12 -21 24 -17 36 9 22 23 22 48 0 19 -17 19 -17 16 2 -5 26 -51 32
-73 10z"/>
<path d="M691 499 c-36 -94 -46 -116 -59 -131 -14 -16 -13 -18 9 -18 20 0 25
5 24 28 0 21 5 28 24 30 31 5 56 -25 40 -45 -9 -10 -5 -13 21 -13 26 0 30 3
21 13 -6 8 -22 45 -37 83 -14 38 -27 71 -30 73 -2 2 -8 -7 -13 -20z m19 -61
c0 -10 -7 -18 -15 -18 -17 0 -18 4 -8 38 4 18 8 20 14 10 5 -7 9 -21 9 -30z"/>
<path d="M780 498 c0 -21 1 -21 14 -3 8 11 19 16 30 12 12 -5 16 -20 16 -70 0
-36 -5 -68 -12 -75 -9 -9 -4 -12 22 -12 26 0 31 3 22 12 -7 7 -12 40 -12 80 0
72 8 82 42 51 17 -15 18 -15 18 5 0 20 -5 22 -70 22 -65 0 -70 -1 -70 -22z"/>
<path d="M948 508 c7 -7 12 -39 12 -73 0 -34 -5 -66 -12 -73 -9 -9 -4 -12 23
-12 70 0 109 42 74 80 -11 12 -13 20 -6 25 6 3 11 15 11 26 0 22 -35 39 -83
39 -24 0 -28 -3 -19 -12z m76 -21 c9 -16 7 -22 -12 -34 l-23 -16 22 -11 c30
-15 34 -30 13 -50 -28 -29 -39 -13 -42 63 -3 64 -1 72 14 69 9 -2 22 -11 28
-21z"/>
<path d="M1141 498 c-36 -94 -46 -115 -59 -130 -14 -16 -13 -18 9 -18 20 0 25
5 24 28 0 23 4 27 30 27 26 0 30 -4 30 -27 -1 -24 3 -28 27 -28 l27 0 -18 33
c-10 17 -26 56 -36 85 -9 28 -19 52 -21 52 -2 0 -8 -10 -13 -22z m19 -60 c0
-10 -7 -18 -15 -18 -17 0 -18 4 -8 38 4 18 8 20 14 10 5 -7 9 -21 9 -30z"/>
<path d="M1250 478 c32 -43 42 -112 18 -121 -7 -3 5 -5 27 -5 22 0 34 2 28 5
-16 6 -17 67 -2 96 6 12 21 32 32 45 l20 22 -25 0 c-20 0 -25 -4 -22 -17 3
-10 -2 -27 -11 -38 l-15 -20 -15 20 c-9 11 -14 28 -11 38 3 13 -2 17 -25 17
l-29 0 30 -42z"/>
<path d="M1398 509 c7 -8 12 -39 12 -76 0 -48 -4 -64 -17 -72 -14 -8 -3 -10
43 -11 47 0 63 4 68 16 10 26 7 28 -13 10 -30 -27 -55 -17 -59 23 -3 31 -2 33
22 29 17 -3 26 -1 26 7 0 8 -9 10 -25 7 -23 -4 -25 -1 -25 32 0 41 20 48 53
19 19 -17 19 -17 16 2 -4 17 -13 21 -59 23 -44 3 -53 1 -42 -9z"/>
<path d="M1534 498 c8 -13 24 -51 36 -86 13 -35 27 -59 31 -55 4 4 17 33 29
63 12 30 28 65 36 78 14 21 13 22 -13 22 -19 0 -24 -3 -16 -11 7 -7 4 -26 -10
-65 -11 -30 -21 -53 -23 -52 -1 2 -11 26 -22 54 -16 38 -18 54 -9 63 8 8 3 11
-21 11 -31 0 -32 -1 -18 -22z"/>
<path d="M518 288 c7 -7 12 -33 12 -58 0 -53 13 -70 52 -70 33 0 48 24 48 77
0 22 5 44 12 51 9 9 6 12 -17 12 -23 0 -26 -3 -17 -12 16 -16 16 -90 0 -106
-20 -20 -48 -14 -58 14 -14 35 -13 77 2 92 9 9 6 12 -17 12 -23 0 -26 -3 -17
-12z"/>
<path d="M668 288 c16 -16 16 -115 0 -121 -7 -3 1 -5 17 -5 17 0 24 2 18 5 -8
3 -13 23 -13 50 l0 46 43 -53 42 -52 3 58 c2 32 8 64 14 71 8 10 4 13 -18 12
-16 0 -23 -3 -16 -6 7 -3 12 -23 12 -50 l0 -46 -42 52 c-23 28 -48 51 -57 51
-12 0 -12 -3 -3 -12z"/>
<path d="M828 239 c3 -44 0 -64 -10 -70 -8 -6 -1 -8 22 -8 19 0 29 3 23 6 -8
3 -13 26 -13 63 0 37 5 60 13 63 6 3 1 6 -13 6 -24 1 -25 0 -22 -60z"/>
<path d="M905 253 c12 -27 26 -59 32 -73 l11 -25 10 25 c9 23 41 96 50 113 2
4 -5 7 -16 7 -15 0 -19 -5 -15 -18 2 -10 -2 -34 -10 -53 l-15 -34 -16 39 c-10
21 -15 45 -12 52 4 9 -2 14 -18 14 l-23 0 22 -47z"/>
<path d="M1038 288 c16 -16 16 -100 0 -116 -9 -9 0 -12 40 -12 40 0 52 4 52
15 0 12 -4 13 -19 4 -33 -21 -49 -5 -49 51 0 55 16 73 43 50 12 -10 15 -9 15
4 0 12 -10 16 -47 16 -37 0 -44 -3 -35 -12z"/>
<path d="M1155 230 c0 -68 1 -70 25 -69 14 0 19 3 13 6 -14 5 -18 53 -5 53 5
0 18 -13 30 -30 13 -16 30 -30 38 -30 14 0 14 2 0 16 -26 25 -37 52 -26 59 20
12 11 52 -12 59 -59 15 -63 12 -63 -64z m60 30 c0 -16 -6 -26 -17 -28 -14 -3
-18 3 -18 28 0 25 4 31 18 28 11 -2 17 -12 17 -28z"/>
<path d="M1292 288 c-20 -20 -14 -45 18 -68 17 -12 30 -26 30 -31 0 -19 -31
-21 -50 -4 -18 16 -18 16 -13 -4 8 -30 58 -29 74 1 10 19 8 25 -23 52 -35 30
-40 56 -13 56 8 0 19 -8 25 -17 10 -16 10 -16 8 2 -4 23 -38 31 -56 13z"/>
<path d="M1378 288 c16 -16 16 -115 0 -121 -7 -3 0 -6 17 -6 22 -1 26 2 17 11
-7 7 -12 33 -12 58 0 25 5 51 12 58 9 9 6 12 -17 12 -23 0 -26 -3 -17 -12z"/>
<path d="M1440 283 c0 -15 2 -15 9 -4 5 8 16 11 25 8 20 -8 23 -96 4 -115 -9
-9 -6 -12 17 -12 23 0 26 3 17 12 -15 15 -16 104 -2 113 6 4 17 1 25 -5 12
-10 15 -9 15 4 0 13 -11 16 -55 16 -46 0 -55 -3 -55 -17z"/>
<path d="M1585 264 c27 -39 33 -89 13 -97 -7 -3 3 -5 22 -5 19 0 29 2 23 5
-21 8 -15 56 12 96 25 35 25 37 6 37 -12 0 -18 -5 -15 -13 2 -7 -2 -21 -9 -32
-14 -18 -15 -18 -26 3 -7 13 -9 27 -6 32 3 6 -5 10 -19 10 l-25 0 24 -36z"/>
<path d="M1096 242 c-2 -4 -1 -14 5 -22 7 -12 9 -10 9 8 0 23 -5 28 -14 14z"/>
</g>
</svg>
